<?xml version="1.0" encoding="UTF-8" standalone="no"?>
<svg width="186px" height="72px" viewBox="0 0 186 72" version="1.1" xmlns="http://www.w3.org/2000/svg" xmlns:xlink="http://www.w3.org/1999/xlink">
    <!-- Generator: sketchtool 39.1 (31720) - http://www.bohemiancoding.com/sketch -->
    <title>5FA33FFC-ADAB-4449-8C5D-6492EEE57CC4</title>
    <desc>Created with sketchtool.</desc>
    <defs></defs>
    <g id="Page-1" stroke="none" stroke-width="1" fill="none" fill-rule="evenodd">
        <g id="Home-Page-Banner-Active-Widget" transform="translate(-627.000000, -163.000000)">
            <g id="Banner">
                <g id="Widget_active" transform="translate(375.000000, 163.000000)">
                    <g id="Logo" transform="translate(252.000000, 0.000000)">
                        <path d="M181.905949,56.9695304 L181.931028,40.7875304 C181.931028,39.4993565 181.802501,38.2949217 181.530557,37.1859652 C181.268802,36.0754435 180.818958,35.1097043 180.207672,34.2950087 C179.598737,33.4771826 178.802499,32.8534435 177.815821,32.4026609 C176.844817,31.9612696 175.642621,31.7350957 174.224125,31.7327478 C172.93729,31.7327478 171.739797,31.9839652 170.65594,32.4895304 C169.572867,32.9896174 168.631644,33.6775304 167.840107,34.5548348 C167.051705,35.4297913 166.438068,36.4581391 165.996062,37.6445739 C165.554839,38.8380522 165.340889,40.1090087 165.338538,41.4652696 L165.315027,56.9452696 L161.583832,56.9390087 L161.616748,35.5080522 C161.619882,34.9187478 161.609694,34.2770087 161.601857,33.5875304 C161.598723,32.896487 161.586967,32.2531826 161.572861,31.6638783 C161.550917,31.0620522 161.546215,30.5502261 161.534459,30.1221391 C161.526622,29.700313 161.518785,29.4310957 161.518785,29.3254435 L164.906719,29.3301391 C164.906719,29.4005739 164.924744,29.6830957 164.961578,30.1753565 C164.978036,30.6738783 164.996845,31.2397043 165.018004,31.8657913 C165.042299,32.4801391 165.072863,33.0999652 165.095591,33.7284 C165.125371,34.344313 165.130857,34.8162261 165.130857,35.154313 L165.240575,35.154313 C166.399667,33.0185739 167.81738,31.4392696 169.487444,30.4109217 C171.167696,29.3880522 173.170832,28.8715304 175.51958,28.8738783 C177.391839,28.8738783 178.972561,29.1720522 180.250776,29.7566609 C181.540745,30.348313 182.579147,31.1465739 183.364415,32.1514435 C184.1536,33.1539652 184.719431,34.3388348 185.065827,35.6802261 C185.414573,37.0239652 185.590122,38.4569217 185.586987,39.9626609 L185.563476,56.9726609 L181.905949,56.9695304 Z" id="Fill-8" fill="#FFFFFF"></path>
                        <path d="M100.584095,57.107113 C99.6883267,57.107113 98.9328402,56.9787652 98.3137174,56.7298957 C97.6922436,56.4669391 97.1859736,56.0873739 96.8058792,55.5802435 C96.4210826,55.0770261 96.1358159,54.443113 95.9367562,53.6785043 C95.7502357,52.9170261 95.6248437,52.0585043 95.5715522,51.095113 L95.5010192,51.095113 C94.4383224,52.9827652 93.0025845,54.4978957 91.1765642,55.6522435 C89.3434906,56.8026783 87.147564,57.3778957 84.592703,57.3778957 C83.1577488,57.3747652 81.8568073,57.197113 80.6953643,56.8441565 C79.5284355,56.4912 78.5347043,55.9699826 77.7321958,55.2898957 C76.9155807,54.6121565 76.2854861,53.7841565 75.8669905,52.8043304 C75.4422252,51.8440696 75.2282752,50.7319826 75.2282752,49.4946783 C75.2306263,47.8488522 75.5848586,46.4652 76.3027275,45.3265043 C77.0119757,44.1925043 77.9727916,43.2705913 79.1726358,42.5662435 C80.385803,41.8603304 81.7823558,41.331287 83.3818869,40.9955478 C84.9767158,40.6527652 86.6655887,40.4798087 88.4430196,40.467287 L95.5174769,40.3718087 L95.5174769,38.8770261 C95.5206117,36.255287 94.8795453,34.3723304 93.6091681,33.2328522 C92.3301702,32.0965043 90.4970966,31.5298957 88.0903548,31.5244174 C86.9485043,31.5244174 85.9155881,31.6175478 85.0057127,31.8053739 C84.1083766,32.0018087 83.3293791,32.3038957 82.6648017,32.7358957 C82.0127636,33.1624174 81.4916032,33.7180696 81.0950512,34.4145913 C80.7032013,35.1009391 80.4320412,35.9375478 80.2847057,36.9087652 L76.4821947,36.507287 C76.6585272,35.3928522 77.0252986,34.3488522 77.5731047,33.3948522 C78.1318826,32.4298957 78.8763973,31.6097217 79.8278088,30.9218087 C80.7690321,30.2338957 81.935961,29.6978087 83.319191,29.3135478 C84.7079068,28.9339826 86.3003846,28.739113 88.1201354,28.739113 C91.7510161,28.7461565 94.5010184,29.5984174 96.3913021,31.2865043 C98.2784509,32.9738087 99.2290787,35.4194609 99.2228091,38.6203304 L99.2071351,49.9274609 C99.2008655,51.4285043 99.387386,52.5585913 99.7682641,53.3302435 C100.141305,54.1018957 100.855256,54.4869391 101.923438,54.4869391 C102.192247,54.4869391 102.487702,54.4501565 102.819207,54.3922435 C103.152279,54.3202435 103.43833,54.2560696 103.686763,54.2044174 L103.68206,56.7447652 C103.175007,56.8887652 102.652279,56.9834609 102.131902,57.035113 C101.60604,57.0828522 101.0935,57.107113 100.584095,57.107113 L100.584095,57.107113 Z M95.5143421,42.9638087 L89.2024247,43.1422435 C87.8403546,43.1610261 86.5480337,43.2541565 85.32076,43.4513739 C84.0934863,43.6376348 83.0143318,43.9647652 82.0856476,44.4312 C81.1577472,44.8882435 80.4242042,45.5205913 79.8763982,46.317287 C79.3372128,47.1147652 79.0629179,48.1180696 79.0629179,49.3389391 C79.0629179,50.8994609 79.5370562,52.1195478 80.5002231,53.0046783 C81.4594716,53.885113 82.9845512,54.3296348 85.0660576,54.3358957 C86.6773442,54.3358957 88.1279724,54.0518087 89.4124562,53.5016348 C90.7024259,52.9373739 91.7980381,52.2322435 92.7047786,51.3658957 C93.6005474,50.5026783 94.2933379,49.5330261 94.7807992,48.4585043 C95.2651256,47.3886783 95.5088562,46.3305913 95.511991,45.3038087 L95.5143421,42.9638087 Z" id="Fill-10" fill="#FFFFFF"></path>
                        <path d="M69.0057779,56.802913 L69.0285052,40.6193478 C69.0308563,39.324913 68.9109502,38.1259565 68.6711381,37.0185652 C68.4180031,35.9080435 68.0175326,34.9391739 67.4454318,34.1283913 C66.881168,33.3097826 66.1390044,32.6805652 65.2346149,32.2297826 C64.3200374,31.7938696 63.180538,31.5676957 61.8223864,31.5653478 C60.6256769,31.563 59.5245789,31.8032609 58.4924464,32.2923913 C57.4736367,32.7736957 56.5833539,33.4663043 55.8302184,34.331087 C55.0747319,35.2115217 54.4885246,36.2336087 54.0747311,37.4067391 C53.6617214,38.5892609 53.4532572,39.8602174 53.4532572,41.2297826 L53.4273952,56.7786522 L49.7534109,56.7708261 L49.7800567,40.5872609 C49.7800567,39.299087 49.659367,38.1016957 49.4156364,36.9880435 C49.1742568,35.8783043 48.7635982,34.9133478 48.1836604,34.097087 C47.6107759,33.2800435 46.869396,32.6563043 45.9571696,32.2023913 C45.050429,31.764913 43.9109296,31.5379565 42.5472921,31.5348261 C41.3560686,31.5301304 40.2471335,31.7868261 39.222838,32.2892609 C38.1977588,32.7924783 37.3106107,33.4772609 36.558259,34.3545652 C35.8051236,35.2318696 35.2212673,36.2594348 34.804339,37.4505652 C34.3913293,38.6401304 34.1828652,39.9126522 34.1828652,41.2712609 L34.1554357,56.7512609 L30.430511,56.7418696 L30.4610753,35.3124783 C30.4610753,34.7208261 30.4532383,34.0783043 30.4477524,33.3896087 C30.4391317,32.700913 30.430511,32.0583913 30.4171881,31.4636087 C30.3944608,30.8656957 30.3874075,30.357 30.3795705,29.9242174 C30.3709498,29.5031739 30.3623291,29.2386522 30.3623291,29.1283043 L33.7479118,29.1345652 C33.7479118,29.205 33.7667206,29.4804783 33.8051219,29.975087 C33.8192285,30.4736087 33.8380373,31.0394348 33.8654668,31.6631739 C33.8889778,32.2845652 33.917191,32.9012609 33.9422694,33.5304783 C33.9665641,34.1463913 33.9775359,34.6206522 33.9775359,34.9516957 L34.0817679,34.9516957 C35.1718942,32.8261304 36.519074,31.2421304 38.1044985,30.2122174 C39.7016785,29.1846522 41.626445,28.6712609 43.888986,28.6736087 C45.1985482,28.6736087 46.3545053,28.8465652 47.3568572,29.1807391 C48.3529396,29.5133478 49.2157929,29.9719565 49.9548218,30.5651739 C50.6867973,31.1466522 51.2941646,31.8455217 51.7902465,32.6641304 C52.2753566,33.4772609 52.6366421,34.3717826 52.8858587,35.346913 L52.9916581,35.346913 C54.0825681,33.2025652 55.4548263,31.5551739 57.13116,30.4133478 C58.8035751,29.2707391 60.8027931,28.7025652 63.1076539,28.7080435 C64.9007588,28.7080435 66.4015438,29.0015217 67.6233316,29.5853478 C68.8474706,30.1777826 69.8372833,30.9807391 70.5865002,31.9840435 C71.3341497,32.9842174 71.8733351,34.169087 72.202489,35.5081304 C72.5222385,36.855 72.6836806,38.2840435 72.6813295,39.7897826 L72.6546837,56.8060435 L69.0057779,56.802913 Z" id="Fill-12" fill="#FFFFFF"></path>
                        <path d="M25.3558203,56.995513 C24.4600515,56.9923826 23.7069161,56.8656 23.0877933,56.6136 C22.4616173,56.3522087 21.9600495,55.9742087 21.577604,55.4670783 C21.1904563,54.9622957 20.9051897,54.3283826 20.708481,53.5684696 C20.5219605,52.8046435 20.3965685,51.9453391 20.3440607,50.9803826 L20.2735277,50.9803826 C19.2123983,52.865687 17.775093,54.3831652 15.9459379,55.5390783 C14.1152154,56.6910783 11.9192888,57.2678609 9.36207669,57.2647304 C7.93260842,57.2631652 6.62853211,57.0823826 5.46865655,56.7309913 C4.30329508,56.3796 3.30642906,55.861513 2.50235316,55.1798609 C1.68495437,54.4982087 1.0603457,53.6694261 0.644201158,52.6958609 C0.211598921,51.7269913 -0.00156739941,50.6172522 -7.02489892e-14,49.3791652 C0.00391849853,47.7372522 0.353448567,46.3489043 1.0760197,45.2149043 C1.78526793,44.0730783 2.74451637,43.1574261 3.94906282,42.4530783 C5.15517666,41.7456 6.55721544,41.2189043 8.15047694,40.8831652 C9.75079174,40.5442957 11.4349624,40.3713391 13.221014,40.3549043 L20.2892017,40.2570783 L20.2923365,38.7607304 C20.2978224,36.1397739 19.6512701,34.2591652 18.3808929,33.1204696 C17.1042461,31.9841217 15.2633355,31.417513 12.8652144,31.409687 C11.7139595,31.409687 10.6873129,31.5051652 9.77743753,31.6882957 C8.88245247,31.8878609 8.10110386,32.191513 7.43652651,32.6180348 C6.78135355,33.0484696 6.26724655,33.605687 5.8652086,34.2998609 C5.47100765,34.9924696 5.20141495,35.8236 5.0579979,36.7940348 L1.25783803,36.3988174 C1.42790086,35.2789043 1.79859082,34.2396 2.34874802,33.2824696 C2.90595851,32.3198609 3.64890583,31.4934261 4.60188467,30.8070783 C5.54232432,30.1222957 6.71082058,29.5854261 8.08778096,29.1996 C9.47963164,28.8216 11.0760279,28.6259478 12.894995,28.6306435 C16.5266594,28.6306435 19.275878,29.4876 21.165378,31.1764696 C23.0533105,32.8590783 24.0008035,35.3047304 23.9921828,38.509513 L23.9788599,49.8127304 C23.9725903,51.3153391 24.1591108,52.4438609 24.5368541,53.215513 C24.9130299,53.9856 25.6301152,54.3737739 26.692812,54.3737739 C26.961621,54.3737739 27.2594269,54.3385565 27.5909318,54.2759478 C27.9216531,54.2047304 28.2100546,54.1421217 28.4616222,54.0865565 L28.4561363,56.6300348 C27.9467315,56.7740348 27.4263549,56.8734261 26.906762,56.9266435 C26.3746299,56.9665565 25.8652251,56.995513 25.3558203,56.995513 L25.3558203,56.995513 Z M20.2837158,42.8553391 L13.9749332,43.0322087 C12.6120794,43.0494261 11.323677,43.1409913 10.0948359,43.3366435 C8.86599477,43.5244696 7.78997508,43.8531652 6.85580503,44.3164696 C5.93103937,44.7719478 5.19906385,45.4089913 4.64655556,46.205687 C4.10737016,47.0008174 3.83777746,48.0017739 3.83464266,49.2304696 C3.83464266,50.7823826 4.30642988,52.0032522 5.27586642,52.8899478 C6.23433116,53.7703826 7.75627599,54.2149043 9.83229651,54.2180348 C11.449069,54.2242957 12.902832,53.9402087 14.184181,53.3869043 C15.4749344,52.8273391 16.5674118,52.1206435 17.4765034,51.2542957 C18.3722722,50.3879478 19.0650627,49.4214261 19.552524,48.3453391 C20.0368504,47.275513 20.280581,46.2182087 20.280581,45.1906435 L20.2837158,42.8553391 Z" id="Fill-14" fill="#FFFFFF"></path>
                        <polygon id="Fill-35" fill="#FFFFFF" points="142.14087 42.3372522 156.767057 56.9149043 152.318778 56.9109913 139.573469 44.5356 137.190239 46.655687 137.176132 56.8843826 133.44337 56.8773391 133.503715 17.5426435 137.236477 17.5481217 137.195724 42.8850783 150.661253 29.293513 155.154987 29.2989913"></polygon>
                        <polygon id="Fill-37" fill="#FFFFFF" points="121.441715 42.3372522 106.815527 56.9149043 111.263806 56.9109913 124.009115 44.5356 126.392346 46.655687 126.406452 56.8843826 130.139214 56.8773391 130.078869 17.5426435 126.346107 17.5481217 126.38686 42.8850783 112.921331 29.293513 108.427597 29.2989913"></polygon>
                        <polygon id="Fill-19" fill="#A02820" points="139.62825 12.2886 131.776363 4.44764348 131.776363 7.82608696e-05 139.62825 7.84103478"></polygon>
                        <polygon id="Fill-21" fill="#E03B20" points="123.925181 12.2886 131.777068 4.44764348 131.777068 7.82608696e-05 123.925181 7.84103478"></polygon>
                        <polygon id="Fill-23" fill="#6DC1CE" points="152.728417 27.2559913 160.581089 19.4150348 165.033287 19.4150348 157.182183 27.2559913"></polygon>
                        <polygon id="Fill-25" fill="#57A7B3" points="152.728417 11.5747826 160.581089 19.4157391 165.033287 19.4157391 157.182183 11.5747826"></polygon>
                        <polygon id="Fill-27" fill="#B4C907" points="139.62825 58.9910087 131.776363 66.8311826 131.776363 71.2787478 139.62825 63.4377913"></polygon>
                        <polygon id="Fill-29" fill="#3F822A" points="123.925181 58.9910087 131.777068 66.8311826 131.777068 71.2787478 123.925181 63.4377913"></polygon>
                        <polygon id="Fill-31" fill="#D44521" points="110.854088 27.2559913 103.002201 19.4150348 98.5492192 19.4150348 106.400323 27.2559913"></polygon>
                        <polygon id="Fill-33" fill="#E88412" points="110.854088 11.5747826 103.002201 19.4157391 98.5492192 19.4157391 106.400323 11.5747826"></polygon>
                    </g>
                </g>
            </g>
        </g>
    </g>
</svg>
