<?xml version="1.0" encoding="UTF-8" standalone="no"?>
<svg width="99px" height="23px" viewBox="0 0 99 23" version="1.1" xmlns="http://www.w3.org/2000/svg" xmlns:xlink="http://www.w3.org/1999/xlink">
    <!-- Generator: sketchtool 39.1 (31720) - http://www.bohemiancoding.com/sketch -->
    <title>C2DAC815-F81D-4388-AE27-63056A3007EB</title>
    <desc>Created with sketchtool.</desc>
    <defs></defs>
    <g id="Page-1" stroke="none" stroke-width="1" fill="none" fill-rule="evenodd">
        <g id="Header-With-User-Dropdown" transform="translate(-165.000000, -18.000000)" fill="#FFFFFF">
            <g id="Logo" transform="translate(165.000000, 8.491979)">
                <g id="Full-Logo" transform="translate(0.000000, 9.553476)">
                    <path d="M96.4685932,22.3628319 L96.4818928,13.2971139 C96.4818928,12.5754342 96.4137323,11.9006681 96.2695147,11.2793921 C96.1307001,10.6572393 95.8921384,10.1161987 95.5679606,9.65977797 C95.2450296,9.20160342 94.8227672,8.85216311 94.2995109,8.59961905 C93.7845669,8.35233633 93.1470171,8.22562585 92.3947583,8.22431052 C91.7123223,8.22431052 91.0772663,8.36505122 90.502474,8.6482864 C89.9280974,8.92845246 89.4289466,9.31384522 89.0091779,9.80534156 C88.5910716,10.2955226 88.2656469,10.8716387 88.0312414,11.5363206 C87.7972515,12.2049486 87.6837892,12.9169825 87.6825424,13.6768069 L87.670074,22.3492401 L85.6913423,22.3457325 L85.7087981,10.339367 C85.7104605,10.0092183 85.7050575,9.64969375 85.7009014,9.2634241 C85.699239,8.87627756 85.6930048,8.51587615 85.6855237,8.1857274 C85.6738866,7.84856354 85.6713929,7.56182081 85.6651587,7.32199164 C85.6610026,7.08567003 85.6568465,6.93484511 85.6568465,6.87565509 L87.4535398,6.87828576 C87.4535398,6.91774577 87.4630989,7.07602425 87.4826327,7.35180587 C87.4913606,7.63109505 87.5013353,7.94809046 87.5125568,8.29884609 C87.5254408,8.64302506 87.5416497,8.99027315 87.5537025,9.34234412 C87.5694957,9.68739998 87.572405,9.95178204 87.572405,10.1411901 L87.6305908,10.1411901 C88.2452819,8.94467491 88.9971251,8.05989382 89.8827956,7.48377768 C90.773869,6.91073066 91.8361749,6.62135725 93.0817659,6.62267259 C94.0746645,6.62267259 94.9129551,6.78971996 95.5908193,7.11723804 C96.2749177,7.44870212 96.8256044,7.89591555 97.2420482,8.45887835 C97.6605701,9.02052582 97.9606425,9.68433086 98.1443432,10.4358248 C98.3292908,11.1886341 98.4223881,11.9914261 98.4207256,12.8349934 L98.4082572,22.3645856 L96.4685932,22.3628319 Z" id="Fill-8"></path>
                    <path d="M53.3418847,22.4399104 C52.8668395,22.4399104 52.4661889,22.3680055 52.137855,22.2285801 C51.8082742,22.0812628 51.5397884,21.8686172 51.3382163,21.5845051 C51.1341505,21.3025852 50.9828675,20.9474452 50.8773019,20.5190848 C50.7783861,20.0924783 50.7118881,19.6115046 50.6836264,19.0717794 L50.6462213,19.0717794 C50.0826506,20.1293076 49.3212483,20.9781363 48.3528709,21.624842 C47.3807529,22.2693555 46.2162064,22.5916122 44.8613092,22.5916122 C44.1003225,22.5898584 43.4104056,22.4903315 42.7944677,22.292593 C42.1756205,22.0948545 41.6486237,21.8028505 41.2230364,21.4218422 C40.789968,21.0421492 40.4558155,20.5782749 40.2338783,20.0293423 C40.0086163,19.4913708 39.8951541,18.8683411 39.8951541,18.1751603 C39.8964009,17.2531114 40.0842578,16.4779414 40.464959,15.8400046 C40.8410884,15.2046985 41.3506294,14.6882108 41.9869324,14.2936107 C42.6303007,13.8981337 43.3709224,13.6017452 44.2191877,13.4136525 C45.0649594,13.2216138 45.9606046,13.1247175 46.903214,13.1177024 L50.6549492,13.0642122 L50.6549492,12.2267831 C50.6566116,10.7579939 50.3166405,9.70309629 49.6429324,9.06472103 C48.9646526,8.42809955 47.9925347,8.11066569 46.7161884,8.10759658 C46.1106408,8.10759658 45.5628633,8.15977148 45.0803371,8.26499817 C44.6044606,8.37504776 44.1913417,8.54428735 43.8389022,8.78630874 C43.4931125,9.02526102 43.2167301,9.33655665 43.0064301,9.7267723 C42.7986238,10.1112882 42.6548218,10.5799854 42.5766867,11.1240951 L40.5601342,10.899173 C40.6536471,10.274828 40.8481538,9.68994296 41.138667,9.15547905 C41.4349988,8.61487692 41.8298308,8.15538704 42.3343845,7.76999428 C42.8335353,7.38460152 43.4523825,7.08426701 44.1859387,6.86899073 C44.9224043,6.65634513 45.7669291,6.54717244 46.7319816,6.54717244 C48.6575149,6.55111844 50.1158996,7.02858455 51.1183572,7.97430944 C52.1191524,8.91959588 52.6232905,10.2897351 52.6199656,12.0829733 L52.6116534,18.4176201 C52.6083285,19.2585568 52.7072443,19.8916707 52.909232,20.323977 C53.1070636,20.7562833 53.4856867,20.9719981 54.0521667,20.9719981 C54.1947218,20.9719981 54.3514078,20.9513912 54.5272119,20.9189463 C54.7038473,20.8786094 54.8555459,20.8426569 54.9872951,20.8137196 L54.9848014,22.2369106 C54.7159001,22.3175844 54.4386864,22.3706362 54.1627197,22.3995735 C53.8838436,22.4263186 53.6120329,22.4399104 53.3418847,22.4399104 L53.3418847,22.4399104 Z M50.6532867,14.5163405 L47.3059427,14.6163059 C46.5836079,14.6268286 45.8982627,14.6790035 45.2474134,14.7894915 C44.596564,14.8938413 44.0242654,15.0771111 43.5317645,15.3384241 C43.0396791,15.5944757 42.6506657,15.9487389 42.3601525,16.3950754 C42.074211,16.8418504 41.9287466,17.4039363 41.9287466,18.0879098 C41.9287466,18.9621683 42.1801922,19.6457033 42.6909801,20.1415841 C43.19969,20.6348342 44.0084721,20.8838707 45.1123393,20.8873783 C45.9668388,20.8873783 46.7361378,20.7282229 47.4173268,20.4199964 C48.1014252,20.1038779 48.6824517,19.7088393 49.1633155,19.2234812 C49.6383607,18.7398769 50.0057622,18.1966441 50.2642733,17.5946597 C50.5211219,16.995306 50.6503774,16.402529 50.6520399,15.8272897 L50.6532867,14.5163405 Z" id="Fill-10"></path>
                    <path d="M36.5952314,22.269487 L36.6072842,13.2028922 C36.608531,12.4777049 36.5449423,11.8060079 36.4177648,11.1856088 C36.283522,10.563456 36.0711439,10.0206617 35.7677467,9.56643313 C35.4685056,9.10782013 35.0749205,8.75531071 34.5953035,8.50276665 C34.1102836,8.25855304 33.5059828,8.13184257 32.7857262,8.13052723 C32.1510857,8.1292119 31.56715,8.26381437 31.0197881,8.53784222 C30.4794917,8.80748561 30.0073558,9.19550904 29.6079521,9.67999026 C29.2073015,10.1732404 28.8964233,10.745849 28.6769798,11.4030773 C28.4579519,12.065567 28.347399,12.777601 28.347399,13.544879 L28.3336838,22.2558952 L26.3852918,22.2515108 L26.3994226,13.184916 C26.3994226,12.4632363 26.3354183,11.7924161 26.2061628,11.1685095 C26.0781541,10.5467951 25.8603731,10.006193 25.5528197,9.54889534 C25.2490069,9.09115924 24.8558374,8.74171893 24.3720643,8.48742109 C23.8912005,8.24233059 23.2868997,8.11518167 22.5637338,8.11342789 C21.9320026,8.11079723 21.3439107,8.25460704 20.8007051,8.53608844 C20.2570837,8.81800828 19.7866103,9.20164726 19.3876221,9.6931436 C18.9882184,10.1846399 18.678587,10.7603176 18.4574811,11.4276302 C18.2384533,12.0940659 18.1279003,12.8069768 18.1279003,13.5681165 L18.1133539,22.2405497 L16.1379471,22.2352883 L16.154156,10.2297997 C16.154156,9.89833565 16.1499998,9.53837267 16.1470906,9.15254147 C16.1425188,8.76671027 16.1379471,8.4067473 16.1308817,8.07352944 C16.1188289,7.73855781 16.1150884,7.45356885 16.1109323,7.21110902 C16.1063605,6.97522585 16.1017888,6.82703159 16.1017888,6.76521091 L17.8972353,6.76871847 C17.8972353,6.80817848 17.90721,6.96251096 17.927575,7.23960791 C17.935056,7.51889709 17.9450307,7.8358925 17.9595772,8.1853328 C17.9720456,8.53345777 17.9870076,8.87895208 18.0003072,9.23146149 C18.0131912,9.57651735 18.0190098,9.84221475 18.0190098,10.0276768 C18.6524034,8.8368614 19.3668415,7.94944963 20.2076258,7.37245661 C21.0546444,6.79677892 22.075389,6.50915929 23.2752626,6.51047463 C23.9697513,6.51047463 24.5827799,6.60737087 25.1143484,6.79458669 C25.6425921,6.98092563 26.1001816,7.23785413 26.4921043,7.5701951 C26.8802864,7.8959594 27.2023862,8.28749038 27.465469,8.74610338 C27.7227332,9.20164726 27.9143306,9.70278938 28.0464955,10.2490913 C28.6811359,9.04775323 29.4088736,8.12482745 30.297869,7.48513686 C31.1847863,6.84500782 32.2450141,6.52669708 33.4673308,6.52976619 C34.4182525,6.52976619 35.2141507,6.69418289 35.8620908,7.02126253 C36.5112777,7.35316505 37.0361964,7.80300915 37.4335221,8.36509507 C37.8300165,8.9254272 38.115958,9.58923224 38.2905153,10.3394109 C38.4600852,11.0939739 38.5457014,11.8945737 38.5444546,12.738141 L38.5303238,22.2712408 L36.5952314,22.269487 Z" id="Fill-12"></path>
                    <path d="M13.4467307,22.3773882 C12.9716855,22.3756344 12.5722817,22.3046064 12.2439478,22.1634273 C11.9118733,22.0169868 11.6458812,21.8052181 11.4430622,21.521106 C11.2377496,21.2383093 11.0864666,20.8831692 10.9821479,20.4574395 C10.883232,20.0295177 10.816734,19.5481055 10.788888,19.0075034 L10.7514828,19.0075034 C10.1887434,20.0637163 9.42650982,20.9138603 8.45646996,21.5614429 C7.48559888,22.2068333 6.32105233,22.5299669 4.96490835,22.5282131 C4.20683093,22.5273362 3.51525153,22.4260556 2.90014486,22.229194 C2.28212889,22.0323324 1.75346964,21.7420821 1.32705109,21.3601969 C0.893567131,20.9783117 0.562323874,20.5139989 0.341633573,19.9685739 C0.112215407,19.4257795 -0.000831225239,18.8040651 -1.59388844e-13,18.1104459 C0.0020780631,17.1905892 0.187441291,16.4127886 0.570636126,15.7774824 C0.946765547,15.1377918 1.45547539,14.6248117 2.09427199,14.2302116 C2.73389981,13.8338578 3.47743079,13.5387846 4.32237124,13.3506919 C5.17105221,13.1608454 6.06420373,13.0639491 7.01138489,13.0547418 L10.7597951,12.9999362 L10.7614575,12.1616302 C10.7643668,10.6932795 10.4214864,9.63969721 9.74777837,9.00176039 C9.07074541,8.36513891 8.09447137,8.04770506 6.82269676,8.04332061 C6.21216182,8.04332061 5.66770929,8.09681085 5.18518304,8.19940687 C4.71055343,8.31121023 4.29618764,8.48132671 3.94374814,8.72027899 C3.59629599,8.96142349 3.32365412,9.27359601 3.11044484,9.66249633 C2.90139169,10.0505198 2.75842095,10.5161479 2.68236384,11.0598191 L0.667058254,10.8384046 C0.757246192,10.2109905 0.953830961,9.6287361 1.24559102,9.09251841 C1.54109159,8.55323162 1.93509236,8.09023418 2.4404773,7.70571831 C2.93921244,7.32207933 3.55889086,7.02130637 4.28912223,6.80515321 C5.02725024,6.59338449 5.87385315,6.48377336 6.83849004,6.48640402 C8.76443891,6.48640402 10.222408,6.9665008 11.22445,7.91266414 C12.2256608,8.85531991 12.7281365,10.2254591 12.7235647,12.0208895 L12.7164993,18.3533442 C12.7131744,19.1951577 12.8120902,19.8273947 13.0124155,20.259701 C13.2119096,20.6911305 13.5921951,20.908599 14.1557658,20.908599 C14.2983209,20.908599 14.4562537,20.888869 14.6320579,20.8537934 C14.8074464,20.813895 14.9603918,20.7788194 15.0938035,20.7476898 L15.0908942,22.1726346 C14.820746,22.2533084 14.5447792,22.3089909 14.2692281,22.3388051 C13.9870271,22.3611658 13.7168789,22.3773882 13.4467307,22.3773882 L13.4467307,22.3773882 Z M10.7568858,14.4555721 L7.41120423,14.5546606 C6.68845388,14.5643064 6.00518674,14.6156044 5.35350615,14.7252155 C4.70182556,14.8304422 4.13118944,15.0145889 3.63577919,15.2741481 C3.1453563,15.5293228 2.75717412,15.8862167 2.46416722,16.3325532 C2.17822574,16.7780129 2.035255,17.3387835 2.03359255,18.0271414 C2.03359255,18.8965769 2.28379134,19.5805504 2.79790415,20.0773081 C3.30619839,20.5705582 4.11331809,20.8195947 5.21427592,20.8213485 C6.07168475,20.8248561 6.84264616,20.6657007 7.5221728,20.3557204 C8.20668678,20.0422326 8.78605077,19.6463171 9.26816141,19.160959 C9.74320663,18.6756009 10.1106082,18.1341219 10.3691192,17.5312606 C10.6259678,16.9319069 10.7552234,16.3395683 10.7552234,15.7638907 L10.7568858,14.4555721 Z" id="Fill-14"></path>
                    <polygon id="Fill-35" points="75.3803257 14.1653218 83.136904 22.3322284 80.7778868 22.3300362 74.0187788 15.3969126 72.7549008 16.5846588 72.7474198 22.3151291 70.7678569 22.3111831 70.7998591 0.274521669 72.779422 0.277590781 72.7578101 14.472233 79.8988661 6.85776655 82.2819889 6.86083567"></polygon>
                    <polygon id="Fill-37" points="64.4031237 14.1653218 56.6465454 22.3322284 59.0055626 22.3300362 65.7646706 15.3969126 67.0285486 16.5846588 67.0360296 22.3151291 69.0155925 22.3111831 68.9835903 0.274521669 67.0040274 0.277590781 67.0256393 14.472233 59.8845833 6.85776655 57.5014605 6.86083567"></polygon>
                </g>
            </g>
        </g>
    </g>
</svg>