<?xml version="1.0" encoding="UTF-8" standalone="no"?>
<svg width="72px" height="72px" viewBox="0 0 72 72" version="1.1" xmlns="http://www.w3.org/2000/svg" xmlns:xlink="http://www.w3.org/1999/xlink">
    <!-- Generator: sketchtool 39.1 (31720) - http://www.bohemiancoding.com/sketch -->
    <title>9145A8C5-6700-4780-B27F-A18FAFC7E490</title>
    <desc>Created with sketchtool.</desc>
    <defs></defs>
    <g id="Page-1" stroke="none" stroke-width="1" fill="none" fill-rule="evenodd">
        <g id="Home-Page-Banner-Active-Widget" transform="translate(-165.000000, -3530.000000)">
            <g id="GetTheApp" transform="translate(0.000000, 2990.000000)">
                <g id="AppIcon" transform="translate(165.000000, 540.000000)">
                    <g>
                        <rect id="AppIconBG" fill="#FFFFFF" x="0" y="0" width="72" height="72" rx="15.6"></rect>
                        <g id="Group-10" transform="translate(10.000000, 9.000000)">
                            <polygon id="Fill-19" fill="#A02820" points="32.4238331 9.43629808 26.2263089 3.41526442 26.2263089 0 32.4238331 6.02103365"></polygon>
                            <polygon id="Fill-21" fill="#E03B20" points="20.0293415 9.43629808 26.2268656 3.41526442 26.2268656 0 20.0293415 6.02103365"></polygon>
                            <polygon id="Fill-23" fill="#6DC1CE" points="42.7638445 20.9296875 48.9619872 14.9086538 52.4761238 14.9086538 46.2792182 20.9296875"></polygon>
                            <polygon id="Fill-25" fill="#57A7B3" points="42.7638445 8.88816106 48.9619872 14.9091947 52.4761238 14.9091947 46.2792182 8.88816106"></polygon>
                            <polygon id="Fill-27" fill="#B4C907" points="32.4238331 45.2988582 26.2263089 51.3192909 26.2263089 54.7345553 32.4238331 48.7135216"></polygon>
                            <polygon id="Fill-29" fill="#3F822A" points="20.0293415 45.2988582 26.2268656 51.3192909 26.2268656 54.7345553 20.0293415 48.7135216"></polygon>
                            <polygon id="Fill-31" fill="#D44521" points="9.71227933 20.9296875 3.51475518 14.9086538 0 14.9086538 6.19690557 20.9296875"></polygon>
                            <polygon id="Fill-33" fill="#E88412" points="9.71227933 8.88816106 3.51475518 14.9091947 0 14.9091947 6.19690557 8.88816106"></polygon>
                            <polygon id="Fill-35" fill="#808084" points="34.4070532 32.5105168 45.9515579 43.7046274 42.4405142 43.7016226 32.3805945 34.1986178 30.4995015 35.8266226 30.4883671 43.6811899 27.5420843 43.6757812 27.5897148 13.4708534 30.5359976 13.4750601 30.5038316 32.9311899 41.1322236 22.4942909 44.6791448 22.4984976"></polygon>
                            <polygon id="Fill-37" fill="#808084" points="18.0691325 32.5105168 6.52462772 43.7046274 10.0356714 43.7016226 20.0955911 34.1986178 21.9766841 35.8266226 21.9878185 43.6811899 24.9341013 43.6757812 24.8864709 13.4708534 21.9401881 13.4750601 21.9723541 32.9311899 11.343962 22.4942909 7.79704085 22.4984976"></polygon>
                        </g>
                    </g>
                </g>
            </g>
        </g>
    </g>
</svg>
