<?xml version="1.0" encoding="UTF-8" standalone="no"?>
<svg width="24px" height="24px" viewBox="0 0 24 24" version="1.1" xmlns="http://www.w3.org/2000/svg" xmlns:xlink="http://www.w3.org/1999/xlink">
    <!-- Generator: sketchtool 39.1 (31720) - http://www.bohemiancoding.com/sketch -->
    <title>94235090-E5FC-4D03-BA23-2C3A279BBC9F</title>
    <desc>Created with sketchtool.</desc>
    <defs></defs>
    <g id="Page-1" stroke="none" stroke-width="1" fill="none" fill-rule="evenodd" opacity="0.9">
        <g id="Sign-In" transform="translate(-1004.000000, -173.000000)" fill="#FFFFFF">
            <g id="Password" transform="translate(355.000000, 79.000000)">
                <g id="Group-3" transform="translate(0.000000, 80.000000)">
                    <g id="Sign-In---Facebook" transform="translate(380.000000, 0.000000)">
                        <g id="facebook-logo-button" transform="translate(269.000000, 14.000000)">
                            <g id="Capa_1">
                                <g id="Group">
                                    <path d="M11.6521013,0 C5.21722793,0 0,5.36629158 0,11.9850185 C0,18.6037454 5.21722793,23.970037 11.6521013,23.970037 C18.0869747,23.970037 23.3042026,18.6037454 23.3042026,11.9850185 C23.3042026,5.36481314 18.0869747,0 11.6521013,0 L11.6521013,0 Z M14.6641615,11.9834908 L12.7546612,11.9849692 L12.7532238,19.1759507 L10.1329432,19.1759507 L10.1329432,11.9850185 L8.38514716,11.9850185 L8.38514716,9.50710472 L10.1329432,9.50562628 L10.1300205,8.04645585 C10.1300205,6.024 10.6630938,4.79403696 12.9775017,4.79403696 L14.9059274,4.79403696 L14.9059274,7.27342916 L13.6999247,7.27342916 C12.7983573,7.27342916 12.7546612,7.61948255 12.7546612,8.26516632 L12.7517385,9.50562628 L14.9190075,9.50562628 L14.6641615,11.9834908 L14.6641615,11.9834908 Z" id="Shape"></path>
                                </g>
                            </g>
                        </g>
                    </g>
                </g>
            </g>
        </g>
    </g>
</svg>
