<?xml version="1.0" encoding="UTF-8" standalone="no"?>
<svg width="56px" height="56px" viewBox="0 0 56 56" version="1.1" xmlns="http://www.w3.org/2000/svg" xmlns:xlink="http://www.w3.org/1999/xlink">
    <!-- Generator: sketchtool 39.1 (31720) - http://www.bohemiancoding.com/sketch -->
    <title>316E8934-8FF6-41FC-B967-1826C46F2F16</title>
    <desc>Created with sketchtool.</desc>
    <defs>
        <circle id="path-1" cx="24" cy="24" r="24"></circle>
        <filter x="-50%" y="-50%" width="200%" height="200%" filterUnits="objectBoundingBox" id="filter-2">
            <feOffset dx="0" dy="2" in="SourceAlpha" result="shadowOffsetOuter1"></feOffset>
            <feGaussianBlur stdDeviation="2" in="shadowOffsetOuter1" result="shadowBlurOuter1"></feGaussianBlur>
            <feColorMatrix values="0 0 0 0 0   0 0 0 0 0   0 0 0 0 0  0 0 0 0.339758832 0" type="matrix" in="shadowBlurOuter1"></feColorMatrix>
        </filter>
    </defs>
    <g id="Page-1" stroke="none" stroke-width="1" fill="none" fill-rule="evenodd">
        <g id="Home-Page-Banner-Active-Widget" transform="translate(-658.000000, -682.000000)">
            <g id="Banner">
                <g id="Indiactions" transform="translate(662.000000, 684.000000)">
                    <g id="Featured-City">
                        <g id="Oval-32">
                            <use fill="black" fill-opacity="1" filter="url(#filter-2)" xlink:href="#path-1"></use>
                            <use fill="#FFFFFF" fill-rule="evenodd" xlink:href="#path-1"></use>
                        </g>
                        <g id="icon" transform="translate(12.000000, 15.000000)" fill="#9F9F9F">
                            <path d="M21.4070588,0.140320856 L0.994823529,0.140320856 C0.757647059,0.140320856 0.563764706,0.336684492 0.563764706,0.579251337 L0.563764706,18.646631 C0.563764706,18.8872727 0.757647059,19.0874866 0.994823529,19.0874866 L21.4089412,19.0874866 C21.648,19.0874866 21.84,18.8872727 21.84,18.646631 L21.84,0.579251337 C21.84,0.336684492 21.6461176,0.140320856 21.4070588,0.140320856 L21.4070588,0.140320856 Z M20.2287059,13.9878075 L18.9336471,13.9878075 C18.1807059,12.0145455 17.2527059,9.24620321 15.8447059,9.61582888 C14.1957647,10.0451337 13.3694118,13.9878075 13.3694118,13.9878075 C13.3694118,13.9878075 12.5298824,9.53882353 10.2014118,7.15550802 C7.87105882,4.77411765 5.61411765,13.9878075 5.61411765,13.9878075 L2.53270588,13.9878075 L2.53270588,2.14053476 L20.2287059,2.14053476 L20.2287059,13.9878075 L20.2287059,13.9878075 Z" id="Shape"></path>
                            <ellipse id="Oval" cx="5.38823529" cy="4.6797861" rx="1.44376471" ry="1.47657754"></ellipse>
                            <path d="M15.0767059,5.72320856 C15.4004706,5.72320856 15.7016471,5.68663102 15.9727059,5.63080214 C16.2870588,5.76748663 16.6729412,5.85219251 17.0870588,5.85219251 C18.1487059,5.85219251 19.0127059,5.32085561 19.0127059,4.66631016 C19.0127059,4.00983957 18.1487059,3.47657754 17.0870588,3.47657754 C16.688,3.47657754 16.3171765,3.55358289 16.0103529,3.68064171 C15.8842353,3.55550802 15.7148235,3.47657754 15.5265882,3.47657754 L15.2461176,3.47657754 C14.8903529,3.47657754 14.608,3.75379679 14.5665882,4.10802139 C13.7044706,4.20042781 13.0644706,4.51807487 13.0644706,4.9031016 C13.0625882,5.35550802 13.9642353,5.72320856 15.0767059,5.72320856 L15.0767059,5.72320856 Z" id="Shape"></path>
                        </g>
                    </g>
                </g>
            </g>
        </g>
    </g>
</svg>
