<?xml version="1.0" encoding="UTF-8" standalone="no"?>
<svg width="24px" height="24px" viewBox="0 0 24 24" version="1.1" xmlns="http://www.w3.org/2000/svg" xmlns:xlink="http://www.w3.org/1999/xlink">
    <!-- Generator: sketchtool 39.1 (31720) - http://www.bohemiancoding.com/sketch -->
    <title>3AE3E968-2059-41D1-BD2D-E7CED5343086</title>
    <desc>Created with sketchtool.</desc>
    <defs></defs>
    <g id="Page-1" stroke="none" stroke-width="1" fill="none" fill-rule="evenodd" opacity="0.9">
        <g id="Sign-In" transform="translate(-636.000000, -173.000000)" fill="#FFFFFF">
            <g id="Password" transform="translate(355.000000, 79.000000)">
                <g id="Group-3" transform="translate(0.000000, 80.000000)">
                    <g id="SIGN-IN-WITH-GOOGLE-PLUS">
                        <g id="google-plus-social-logotype" transform="translate(281.000000, 14.000000)">
                            <g id="Capa_1">
                                <g id="Group">
                                    <path d="M12.4392244,8.24571429 C12.4392244,6.58653061 11.4488239,4.00628571 9.5393788,4.00628571 C8.93910635,4.00628571 8.29592226,4.30555102 7.926637,4.76669388 C7.53479248,5.25134694 7.42101535,5.87142857 7.42101535,6.47240816 C7.42101535,8.01526531 8.3179911,10.5722449 10.2987921,10.5722449 C10.873808,10.5722449 11.493452,10.2972245 11.8637181,9.92816327 C12.3931251,9.3964898 12.4392244,8.66081633 12.4392244,8.24571429 L12.4392244,8.24571429 Z" id="Shape"></path>
                                    <path d="M11.1955227,14.3054694 C11.0121061,14.282449 10.8968577,14.282449 10.6668513,14.282449 C10.459159,14.282449 9.21570248,14.3277551 8.24933249,14.6524898 C7.74322042,14.8356735 6.27024793,15.3891429 6.27024793,17.0248163 C6.27024793,18.6612245 7.85871401,19.8374694 10.3215966,19.8374694 C12.5321588,19.8374694 13.7064663,18.775102 13.7064663,17.3485714 C13.7062211,16.1698776 12.9465625,15.5500408 11.1955227,14.3054694 L11.1955227,14.3054694 Z" id="Shape"></path>
                                    <path d="M11.9846063,0 C5.36567069,0 0,5.35885714 0,11.9693878 C0,18.5799184 5.36567069,23.9387755 11.9846063,23.9387755 C18.6035419,23.9387755 23.9692126,18.5799184 23.9692126,11.9693878 C23.9692126,5.35885714 18.6035419,0 11.9846063,0 L11.9846063,0 Z M9.1926528,20.8028571 C5.85388248,20.8028571 4.24334756,19.2139592 4.24334756,17.5077551 C4.24334756,16.6787755 4.65701571,15.5044898 6.01547543,14.697551 C7.44210335,13.8217959 9.37705022,13.7074286 10.4135501,13.6361633 C10.090119,13.2217959 9.7230406,12.7841633 9.7230406,12.0700408 C9.7230406,11.6789388 9.83828898,11.4482449 9.95206612,11.1715102 C9.69851966,11.1950204 9.44644446,11.217551 9.21594769,11.217551 C6.77660521,11.217551 5.39534102,9.396 5.39534102,7.59918367 C5.39534102,6.54073469 5.87815821,5.36473469 6.86782309,4.5122449 C8.18067387,3.42930612 9.97462537,3.13542857 11.2188175,3.13542857 L15.7546998,3.13542857 L14.2576968,4.07485714 L12.8315593,4.07485714 C13.3607211,4.5122449 14.4641631,5.43379592 14.4641631,7.18579592 C14.4641631,8.88955102 13.4985287,9.69820408 12.5321588,10.4576327 C12.2322677,10.7566531 11.8867678,11.0791837 11.8867678,11.5868571 C11.8867678,12.0925714 12.2325129,12.3688163 12.4850786,12.5779592 L13.3146217,13.221551 C14.3278267,14.073551 15.248833,14.8572245 15.2483426,16.4485714 C15.2480974,18.6151837 13.1518027,20.8028571 9.1926528,20.8028571 L9.1926528,20.8028571 Z M19.1275543,11.6877551 L19.1275543,14.0054694 L17.9883117,14.0054694 L17.9883117,11.6877551 L15.6850604,11.6877551 L15.6850604,10.5374694 L17.9883117,10.5374694 L17.9883117,8.23395918 L19.1275543,8.23395918 L19.1275543,10.5374694 L21.44184,10.5374694 L21.44184,11.6877551 L19.1275543,11.6877551 L19.1275543,11.6877551 Z" id="Shape"></path>
                                </g>
                            </g>
                        </g>
                    </g>
                </g>
            </g>
        </g>
    </g>
</svg>
