<?xml version="1.0" encoding="UTF-8" standalone="no"?>
<svg width="104px" height="104px" viewBox="0 0 104 104" version="1.1" xmlns="http://www.w3.org/2000/svg" xmlns:xlink="http://www.w3.org/1999/xlink">
    <!-- Generator: sketchtool 39.1 (31720) - http://www.bohemiancoding.com/sketch -->
    <title>D449EA58-F96F-4A09-ACDF-415532ECB4A8</title>
    <desc>Created with sketchtool.</desc>
    <defs></defs>
    <g id="Page-1" stroke="none" stroke-width="1" fill="none" fill-rule="evenodd">
        <g id="SignUp_AccountType_ActiveMode" transform="translate(-852.000000, -414.000000)" stroke="#24CA69" fill="#FFFFFF">
            <g id="Account-Type_Company" transform="translate(355.000000, 361.000000)">
                <g id="Patches">
                    <g id="IC_Company_Active" transform="translate(499.000000, 55.000000)">
                        <g id="Company_icon">
                            <path d="M72.5510204,50.7959184 C70.5102041,49.755102 68,50.5510204 66.9387755,52.6122449 C65.8979592,54.6530612 66.7142857,57.1632653 68.755102,58.2244898 C82.8979592,65.4285714 91.6734694,79.8571429 91.6734694,95.8367347 C91.6734694,98.1428571 93.5306122,100 95.8367347,100 C98.1428571,100 100,98.1428571 100,95.8367347 C100,76.6938776 89.4693878,59.4285714 72.5510204,50.7959184 L72.5510204,50.7959184 Z" id="Shape" stroke-width="3"></path>
                            <path d="M27,51.0204082 C10.3469388,59.755102 0,76.9183673 0,95.8367347 C0,98.1428571 1.85714286,100 4.16326531,100 C6.46938776,100 8.32653061,98.1428571 8.32653061,95.8367347 C8.32653061,80.0408163 16.9591837,65.6938776 30.8571429,58.4081633 C32.8979592,57.3469388 33.6734694,54.8163265 32.6122449,52.7755102 C31.5510204,50.755102 29.0204082,49.9591837 27,51.0204082 L27,51.0204082 Z" id="Shape" stroke-width="3"></path>
                            <path d="M50,52.9795918 C64.4897959,52.9795918 76.2653061,41.1020408 76.2653061,26.4897959 C76.2653061,11.877551 64.4897959,0 50,0 C35.5102041,0 23.7346939,11.877551 23.7346939,26.4897959 C23.7346939,41.1020408 35.5102041,52.9795918 50,52.9795918 L50,52.9795918 Z M50,8.32653061 C59.8979592,8.32653061 67.9387755,16.4693878 67.9387755,26.4897959 C67.9387755,36.5102041 59.8979592,44.6530612 50,44.6530612 C40.1020408,44.6530612 32.0612245,36.5102041 32.0612245,26.4897959 C32.0612245,16.4693878 40.1020408,8.32653061 50,8.32653061 L50,8.32653061 Z" id="Shape" stroke-width="3"></path>
                            <path d="M58.7755102,59.0204082 C58.4285714,57.0408163 56.6938776,55.5918367 54.6734694,55.5918367 L45.3265306,55.5918367 C43.3061224,55.5918367 41.5714286,57.0408163 41.2244898,59.0204082 L36.4897959,85.4489796 C36.1632653,87.2653061 37.0816327,89.1020408 38.7346939,89.9183673 L48.3061224,94.6530612 C49.7346939,95.3265306 50.6938776,95.4081633 52.0612245,94.6326531 L61.2857143,89.8979592 C62.9183673,89.0612245 63.8163265,87.2653061 63.4897959,85.4489796 L58.7755102,59.0204082 L58.7755102,59.0204082 Z M50.1428571,86.244898 L45.2653061,83.8367347 L48.8367347,63.9183673 L51.2040816,63.9183673 L54.7755102,83.877551 L50.1428571,86.244898 L50.1428571,86.244898 Z" id="Shape" stroke-width="3"></path>
                        </g>
                    </g>
                </g>
            </g>
        </g>
    </g>
</svg>
