<?xml version="1.0" encoding="UTF-8" standalone="no"?>
<svg width="88px" height="102px" viewBox="0 0 88 102" version="1.1" xmlns="http://www.w3.org/2000/svg" xmlns:xlink="http://www.w3.org/1999/xlink">
    <!-- Generator: sketchtool 39.1 (31720) - http://www.bohemiancoding.com/sketch -->
    <title>A3FAB9C5-6059-44D5-BC19-40419B665BCC</title>
    <desc>Created with sketchtool.</desc>
    <defs></defs>
    <g id="Page-1" stroke="none" stroke-width="1" fill="none" fill-rule="evenodd">
        <g id="SignUp_AccountType_ActiveMode" transform="translate(-493.000000, -110.000000)" stroke-width="1.7" stroke="#FFFFFF" fill="#FFFFFF">
            <g id="Account-Type_Ind" transform="translate(355.000000, 56.000000)">
                <g id="Patches">
                    <g id="Ic_Individuals_Active" transform="translate(139.000000, 55.000000)">
                        <g id="Capa_1">
                            <g id="Group">
                                <path d="M42.2735079,53.8716356 L42.6055532,53.8716356 L42.7300701,53.8716356 L42.9375984,53.8716356 C49.0181766,53.7681159 53.9365965,51.6356108 57.5683412,47.5569358 C65.5581795,38.5714286 64.2299986,23.1677019 64.0847288,21.6977226 C63.5659081,10.6625259 58.3361958,5.38302277 54.0196078,2.91925466 C50.8029197,1.07660455 47.0466581,0.082815735 42.8545871,0 L42.7093173,0 L42.626306,0 L42.501789,0 C40.1982253,0 35.6741091,0.372670807 31.3367683,2.83643892 C26.9786747,5.30020704 21.6659511,10.5797101 21.1471304,21.6977226 C21.0018606,23.1677019 19.6736797,38.5714286 27.663518,47.5569358 C31.2745098,51.6356108 36.1929297,53.7681159 42.2735079,53.8716356 L42.2735079,53.8716356 Z M26.6881351,22.2153209 C26.6881351,22.1532091 26.7088879,22.0910973 26.7088879,22.0496894 C27.3937312,7.20496894 37.95692,5.61076605 42.4810362,5.61076605 L42.5640475,5.61076605 L42.7300701,5.61076605 C48.3333333,5.73498965 57.8588808,8.01242236 58.5022184,22.0496894 C58.5022184,22.1118012 58.5022184,22.173913 58.5229712,22.2153209 C58.5437241,22.3602484 59.9964219,36.4389234 53.397023,43.8509317 C50.7821669,46.7908903 47.295692,48.2401656 42.7093173,48.2815735 L42.6055532,48.2815735 L42.6055532,48.2815735 L42.501789,48.2815735 C37.9361672,48.2401656 34.4289395,46.7908903 31.8348361,43.8509317 C25.2561901,36.4803313 26.6673823,22.3395445 26.6881351,22.2153209 L26.6881351,22.2153209 Z" id="Shape"></path>
                                <path d="M85.252612,79.4202899 L85.252612,79.3581781 C85.252612,79.1925466 85.2318592,79.0269151 85.2318592,78.8405797 C85.1073422,74.7412008 84.8375555,65.1552795 75.8308287,62.0910973 C75.7685702,62.0703934 75.6855589,62.0496894 75.6233004,62.0289855 C66.2637756,59.6480331 58.4814656,54.2650104 58.3984543,54.2028986 C57.1325318,53.3126294 55.3892944,53.6231884 54.4969229,54.8861284 C53.6045513,56.1490683 53.9158437,57.8881988 55.1817661,58.7784679 C55.5345642,59.0269151 63.7941892,64.7619048 74.1290969,67.4120083 C78.9645055,69.1304348 79.504079,74.2857143 79.6493488,79.0062112 C79.6493488,79.1925466 79.6493488,79.3581781 79.6701016,79.5238095 C79.6908544,81.3871636 79.5663375,84.2650104 79.2342923,85.9213251 C75.8723343,87.826087 62.6942894,94.4099379 42.6470588,94.4099379 C22.6828396,94.4099379 9.42178331,87.805383 6.03907256,85.9006211 C5.70702734,84.2443064 5.56175755,81.3664596 5.6032632,79.5031056 C5.6032632,79.3374741 5.62401603,79.1718427 5.62401603,78.9855072 C5.76928582,74.2650104 6.30885931,69.1097308 11.1442679,67.3913043 C21.4791756,64.7412008 29.7388006,58.9855072 30.0915987,58.757764 C31.3575211,57.8674948 31.6688135,56.1283644 30.776442,54.8654244 C29.8840704,53.6024845 28.140833,53.2919255 26.8749105,54.1821946 C26.7918992,54.2443064 19.0510949,59.6273292 9.65006441,62.0082816 C9.5670531,62.0289855 9.50479462,62.0496894 9.44253614,62.0703934 C0.43580936,65.1552795 0.166022613,74.7412008 0.0415056534,78.8198758 C0.0415056534,79.0062112 0.0415056534,79.1718427 0.0207528267,79.3374741 L0.0207528267,79.3995859 C2.14103041e-13,80.4761905 -0.0207528267,86.0041408 1.07914699,88.7784679 C1.28667525,89.3167702 1.66022613,89.7722567 2.15829397,90.0828157 C2.78087877,90.4968944 17.7021612,99.9792961 42.6678117,99.9792961 C67.6334621,99.9792961 82.5547445,90.4761905 83.1773293,90.0828157 C83.6546443,89.7722567 84.048948,89.3167702 84.2564763,88.7784679 C85.2941176,86.0248447 85.2733648,80.4968944 85.252612,79.4202899 L85.252612,79.4202899 Z" id="Shape"></path>
                            </g>
                        </g>
                    </g>
                </g>
            </g>
        </g>
    </g>
</svg>
