<?xml version="1.0" encoding="UTF-8" standalone="no"?>
<svg width="98px" height="38px" viewBox="0 0 98 38" version="1.1" xmlns="http://www.w3.org/2000/svg" xmlns:xlink="http://www.w3.org/1999/xlink">
    <!-- Generator: sketchtool 39.1 (31720) - http://www.bohemiancoding.com/sketch -->
    <title>D74F8570-F5FB-4009-AEDC-D6C711662B8B</title>
    <desc>Created with sketchtool.</desc>
    <defs></defs>
    <g id="Page-1" stroke="none" stroke-width="1" fill="none" fill-rule="evenodd">
        <g id="Header-With-User-Dropdown" transform="translate(-165.000000, -10.000000)">
            <g id="Logo" transform="translate(165.000000, 10.000000)">
                <path d="M95.8429196,30.0672522 L95.8561329,21.5267522 C95.8561329,20.8468826 95.7884145,20.2112087 95.6451323,19.6259261 C95.507218,19.0398174 95.2702036,18.5301217 94.9481283,18.1001435 C94.6272918,17.668513 94.207768,17.3393174 93.6879055,17.1014043 C93.1763013,16.8684478 92.5428865,16.7490783 91.7955066,16.7478391 C91.1174968,16.7478391 90.4865596,16.8804261 89.9154953,17.1472522 C89.344844,17.411187 88.8489306,17.7742522 88.4318844,18.2372739 C88.0164898,18.6990565 87.6931758,19.2417957 87.4602905,19.8679696 C87.2278182,20.4978609 87.1150919,21.1686435 87.1138531,21.8844478 L87.1014656,30.0544478 L85.1355676,30.0511435 L85.1529101,18.7403609 C85.1545617,18.4293391 85.1491938,18.0906435 85.1450646,17.7267522 C85.143413,17.3620348 85.1372192,17.022513 85.1297867,16.7114913 C85.118225,16.3938609 85.1157475,16.1237304 85.1095538,15.8977957 C85.1054246,15.6751652 85.1012954,15.5330783 85.1012954,15.4773174 L86.8863358,15.4797957 C86.8863358,15.5169696 86.8958329,15.6660783 86.91524,15.9258826 C86.9239113,16.1889913 86.9338213,16.4876217 86.9449701,16.8180565 C86.9577705,17.1422957 86.9738743,17.4694261 86.9858489,17.8011 C87.0015397,18.1261652 87.0044301,18.3752304 87.0044301,18.5536652 L87.0622385,18.5536652 C87.6729428,17.4264696 88.4199098,16.5929478 89.299836,16.0502087 C90.1851301,15.5103609 91.2405461,15.2377522 92.4780585,15.2389913 C93.4645174,15.2389913 94.297371,15.3963609 94.9708388,15.7049043 C95.6505002,16.0171652 96.1976153,16.4384696 96.6113582,16.9688174 C97.0271657,17.4979261 97.3252918,18.1232739 97.5078011,18.8312304 C97.6915492,19.5404261 97.7840426,20.2967087 97.7823909,21.0914043 L97.7700034,30.0689043 L95.8429196,30.0672522 Z" id="Fill-8" fill="#FFFFFF"></path>
                <path d="M52.9959213,30.1398652 C52.5239571,30.1398652 52.1259051,30.0721261 51.7997006,29.9407783 C51.4722574,29.8019957 51.2055129,29.6016696 51.0052482,29.3340174 C50.8025059,29.0684304 50.6522041,28.7338652 50.5473232,28.3303217 C50.4490489,27.9284304 50.3829822,27.4753217 50.3549038,26.9668652 L50.3177413,26.9668652 C49.7578258,27.9631261 49.0013617,28.7627783 48.039265,29.3720174 C47.073452,29.9791913 45.9164585,30.2827783 44.5703489,30.2827783 C43.8142978,30.2811261 43.1288555,30.1873652 42.5169124,30.0010826 C41.9020789,29.8148 41.3785001,29.539713 40.955673,29.1807783 C40.5254135,28.8230826 40.1934282,28.3860826 39.9729305,27.8689522 C39.7491294,27.3621478 39.6364031,26.775213 39.6364031,26.1221913 C39.6376418,25.2535609 39.8242803,24.5233 40.2025123,23.9223217 C40.5762023,23.3238217 41.0824386,22.8372565 41.7146146,22.4655174 C42.3538102,22.0929522 43.0896283,21.8137348 43.932392,21.6365391 C44.7726782,21.4556261 45.6625145,21.3643435 46.5990103,21.3577348 L50.3264125,21.3073435 L50.3264125,20.5184304 C50.3280642,19.1347348 49.9902981,18.1409522 49.3209595,17.5395609 C48.6470789,16.9398217 47.6812659,16.6407783 46.4131977,16.637887 C45.8115775,16.637887 45.2673529,16.6870391 44.7879562,16.7861696 C44.3151661,16.8898435 43.9047266,17.0492783 43.5545729,17.2772783 C43.211026,17.502387 42.9364361,17.7956478 42.7275001,18.1632565 C42.5210416,18.5254957 42.3781723,18.9670391 42.3005439,19.4796261 L40.2970703,19.2677348 C40.3899767,18.6795609 40.5832219,18.1285609 40.8718509,17.6250609 C41.1662607,17.1157783 41.5585319,16.6829087 42.0598132,16.3198435 C42.5557266,15.9567783 43.1705601,15.6738435 43.8993587,15.4710391 C44.6310477,15.270713 45.4700951,15.1678652 46.4288885,15.1678652 C48.3419332,15.1715826 49.7908591,15.621387 50.7868151,16.5123217 C51.7811193,17.4028435 52.2819877,18.6936043 52.2786844,20.3829522 L52.270426,26.3506043 C52.2671227,27.1428217 52.3653969,27.7392565 52.5660746,28.1465174 C52.7626231,28.5537783 53.1387906,28.7569957 53.7015965,28.7569957 C53.8432271,28.7569957 53.9988968,28.7375826 54.1735607,28.7070174 C54.3490504,28.6690174 54.4997652,28.6351478 54.6306599,28.607887 L54.6281824,29.9486261 C54.361025,30.0246261 54.0856094,30.0746043 53.8114324,30.1018652 C53.5343651,30.1270609 53.2643174,30.1398652 52.9959213,30.1398652 L52.9959213,30.1398652 Z M50.3247609,22.6753435 L46.999127,22.7695174 C46.2814771,22.7794304 45.6005769,22.8285826 44.9539488,22.9326696 C44.3073207,23.0309739 43.7387339,23.2036261 43.2494272,23.4498 C42.7605335,23.6910174 42.3740431,24.0247565 42.0854141,24.4452348 C41.8013272,24.8661261 41.6568062,25.3956478 41.6568062,26.0399957 C41.6568062,26.8636043 41.906621,27.5075391 42.4140961,27.9746913 C42.9195065,28.4393652 43.7230431,28.6739739 44.8197508,28.6772783 C45.6687082,28.6772783 46.4330177,28.5273435 47.1097887,28.2369739 C47.7894502,27.9391696 48.3667082,27.5670174 48.8444533,27.1097783 C49.3164174,26.6541913 49.6814361,26.1424304 49.9382705,25.5753217 C50.1934533,25.0106913 50.3218705,24.4522565 50.3235221,23.9103435 L50.3247609,22.6753435 Z" id="Fill-10" fill="#FFFFFF"></path>
                <path d="M36.357883,29.9793152 L36.3698576,21.4379891 C36.3710963,20.7548152 36.30792,20.1220326 36.1815674,19.5375761 C36.0481952,18.9514674 35.8371946,18.4401196 35.5357651,18.0122065 C35.2384649,17.580163 34.8474324,17.2480761 34.3709261,17.010163 C33.8890519,16.7800978 33.2886706,16.6607283 32.5730853,16.6594891 C31.942561,16.65825 31.3624125,16.7850543 30.8186008,17.0432065 C30.2818086,17.2972283 29.8127348,17.6627717 29.4159215,18.1191848 C29.0178695,18.5838587 28.7090076,19.1232935 28.4909874,19.7424457 C28.2733801,20.3665543 28.1635441,21.037337 28.1635441,21.760163 L28.1499179,29.9665109 L26.2141627,29.9623804 L26.2282019,21.4210543 C26.2282019,20.7411848 26.1646127,20.1092283 26.0361955,19.5214674 C25.909017,18.9357717 25.6926485,18.4264891 25.3870899,17.9956848 C25.0852475,17.5644674 24.694628,17.2352717 24.2139926,16.9957065 C23.7362475,16.7648152 23.1358661,16.6450326 22.4173905,16.6433804 C21.7897566,16.6409022 21.2054789,16.7763804 20.6657964,17.0415543 C20.1257009,17.3071413 19.6582788,17.6685543 19.2618784,18.1315761 C18.8650651,18.5945978 18.5574419,19.1369239 18.33777,19.7655761 C18.1201627,20.3934022 18.0103268,21.0650109 18.0103268,21.7820543 L17.9958747,29.9520543 L16.03328,29.9470978 L16.0493837,18.6371413 C16.0493837,18.3248804 16.0452546,17.9857717 16.0423642,17.6222935 C16.0378221,17.2588152 16.03328,16.9197065 16.0262604,16.6057935 C16.0142858,16.2902283 16.0105695,16.02175 16.0064404,15.793337 C16.0018983,15.5711196 15.9973562,15.4315109 15.9973562,15.3732717 L17.7811579,15.3765761 C17.7811579,15.41375 17.7910679,15.5591413 17.8113008,15.8201848 C17.8187333,16.0832935 17.8286433,16.3819239 17.8430954,16.7111196 C17.8554829,17.0390761 17.8703479,17.3645543 17.8835613,17.6966413 C17.8963617,18.0217065 17.9021425,18.2720109 17.9021425,18.4467283 L17.9570605,18.4467283 C18.5314281,17.3249022 19.2412325,16.4889022 20.0765637,15.945337 C20.9180887,15.4030109 21.9322129,15.1320543 23.1243045,15.1332935 C23.8142889,15.1332935 24.4233415,15.2245761 24.9514624,15.4009457 C25.47628,15.5764891 25.9309017,15.8185326 26.3202824,16.1316196 C26.705947,16.4385109 27.0259577,16.8073587 27.2873342,17.2394022 C27.5429298,17.6685543 27.7332846,18.140663 27.8645922,18.6553152 L27.920336,18.6553152 C28.4951165,17.5235761 29.2181343,16.6541196 30.1013639,16.0514891 C30.9825288,15.4484457 32.0358802,15.1485761 33.2502693,15.1514674 C34.1950235,15.1514674 34.9857596,15.3063587 35.6294973,15.6144891 C36.2744737,15.927163 36.795988,16.3509457 37.1907367,16.8804674 C37.5846595,17.408337 37.8687465,18.0336848 38.0421716,18.7404022 C38.2106418,19.45125 38.2957027,20.2054674 38.2944639,21.000163 L38.2804248,29.9809674 L36.357883,29.9793152 Z" id="Fill-12" fill="#FFFFFF"></path>
                <path d="M13.3595182,30.0809652 C12.887554,30.079313 12.4907407,30.0124 12.1645363,29.8794 C11.8346155,29.7414435 11.5703486,29.5419435 11.3688451,29.2742913 C11.1648641,29.0078783 11.0145623,28.673313 10.9109201,28.2722478 C10.8126459,27.8691174 10.7465791,27.4155957 10.7189137,26.906313 L10.6817511,26.906313 C10.1226615,27.9013348 9.36537159,28.7022261 8.4016232,29.3122913 C7.43704897,29.9202913 6.2800554,30.2247043 4.93270707,30.2230522 C4.17954637,30.2222261 3.4924524,30.126813 2.88133517,29.9413565 C2.26732752,29.7559 1.74209703,29.4824652 1.31844414,29.1227043 C0.887771656,28.7629435 0.558676768,28.3255304 0.339417815,27.8117043 C0.111487603,27.3003565 -0.000825834099,26.7146609 -3.70129088e-14,26.0612261 C0.00206458525,25.1946609 0.186225589,24.4619217 0.566935109,23.8634217 C0.940625038,23.2607913 1.44603551,22.7775304 2.08068901,22.4057913 C2.71616835,22.0324 3.45487695,21.7544217 4.29433731,21.5772261 C5.13751393,21.3983783 6.02487267,21.3070957 6.96591062,21.2984217 L10.6900095,21.2467913 L10.6916612,20.4570522 C10.6945516,19.0737696 10.353895,18.0812261 9.68455647,17.4802478 C9.0119146,16.8805087 8.04197245,16.5814652 6.77844628,16.5773348 C6.17187114,16.5773348 5.6309498,16.6277261 5.15155311,16.7243783 C4.68000184,16.8297043 4.26832354,16.9899652 3.91816988,17.2150739 C3.57297123,17.4422478 3.30209764,17.7363348 3.0902712,18.1027043 C2.88257392,18.4682478 2.74053046,18.9069 2.66496664,19.4190739 L0.662731864,19.210487 C0.752334864,18.6194217 0.947644628,18.0709 1.2375124,17.5657478 C1.53109642,17.0577043 1.92254178,16.6215304 2.42464891,16.2592913 C2.92014937,15.8978783 3.53580869,15.6145304 4.26130395,15.4109 C4.99464463,15.2114 5.83575666,15.1081391 6.79413713,15.1106174 C8.70759474,15.1106174 10.1561077,15.5629 11.1516507,16.4542478 C12.1463679,17.3422913 12.6455846,18.6330522 12.6410425,20.3244652 L12.634023,26.2900522 C12.6307196,27.0830957 12.7289939,27.6787043 12.9280199,28.0859652 C13.1262201,28.4924 13.5040392,28.6972696 14.0639547,28.6972696 C14.2055852,28.6972696 14.3624937,28.6786826 14.5371576,28.6456391 C14.7114086,28.6080522 14.8633621,28.5750087 14.9959085,28.5456826 L14.9930181,29.8880739 C14.724622,29.9640739 14.4504451,30.0165304 14.1766811,30.0446174 C13.8963104,30.0656826 13.6279143,30.0809652 13.3595182,30.0809652 L13.3595182,30.0809652 Z M10.6871191,22.6180957 L7.36313682,22.7114435 C6.64507407,22.7205304 5.96623845,22.7688565 5.31878451,22.8721174 C4.67133058,22.9712478 4.10439547,23.1447261 3.61219835,23.3892478 C3.12495623,23.6296391 2.7392917,23.9658565 2.44818519,24.3863348 C2.16409826,24.805987 2.02205479,25.3342696 2.02040312,25.9827478 C2.02040312,26.801813 2.26897919,27.4461609 2.77975758,27.9141391 C3.28475513,28.378813 4.08664004,28.6134217 5.1804573,28.6150739 C6.03230517,28.6183783 6.7982663,28.4684435 7.47338567,28.1764217 C8.15346006,27.8810957 8.72906642,27.5081174 9.2080502,27.0508783 C9.68001439,26.5936391 10.0450331,26.0835304 10.3018675,25.5155957 C10.5570502,24.9509652 10.6854674,24.3929435 10.6854674,23.8506174 L10.6871191,22.6180957 Z" id="Fill-14" fill="#FFFFFF"></path>
                <polygon id="Fill-35" fill="#FFFFFF" points="74.8914259 22.3446609 82.5976968 30.0384217 80.2539796 30.0363565 73.5387096 23.5049 72.2830289 24.6238348 72.2755964 30.022313 70.3088725 30.0185957 70.3406671 9.25861739 72.307391 9.2615087 72.2859193 22.6337913 79.3806601 15.4604652 81.7483264 15.4633565"></polygon>
                <polygon id="Fill-37" fill="#FFFFFF" points="63.9854195 22.3446609 56.2791486 30.0384217 58.6228658 30.0363565 65.3381358 23.5049 66.5938165 24.6238348 66.601249 30.022313 68.5679729 30.0185957 68.5361783 9.25861739 66.5694544 9.2615087 66.5909261 22.6337913 59.4961853 15.4604652 57.128519 15.4633565"></polygon>
                <polygon id="Fill-19" fill="#A02820" points="73.5675725 6.48565 69.4305566 2.34736739 69.4305566 4.13043479e-05 73.5675725 4.13832391"></polygon>
                <polygon id="Fill-21" fill="#E03B20" points="65.2939123 6.48565 69.4309283 2.34736739 69.4309283 4.13043479e-05 65.2939123 4.13832391"></polygon>
                <polygon id="Fill-23" fill="#6DC1CE" points="80.4698114 14.3851065 84.6072402 10.2468239 86.9530219 10.2468239 82.8164189 14.3851065"></polygon>
                <polygon id="Fill-25" fill="#57A7B3" points="80.4698114 6.10891304 84.6072402 10.2471957 86.9530219 10.2471957 82.8164189 6.10891304"></polygon>
                <polygon id="Fill-27" fill="#B4C907" points="73.5675725 31.1341435 69.4305566 35.272013 69.4305566 37.6193391 73.5675725 33.4810565"></polygon>
                <polygon id="Fill-29" fill="#3F822A" points="65.2939123 31.1341435 69.4309283 35.272013 69.4309283 37.6193391 65.2939123 33.4810565"></polygon>
                <polygon id="Fill-31" fill="#D44521" points="58.4069927 14.3851065 54.2699768 10.2468239 51.9237822 10.2468239 56.0603852 14.3851065"></polygon>
                <polygon id="Fill-33" fill="#E88412" points="58.4069927 6.10891304 54.2699768 10.2471957 51.9237822 10.2471957 56.0603852 6.10891304"></polygon>
            </g>
        </g>
    </g>
</svg>
