<?xml version="1.0" encoding="UTF-8" standalone="no"?>
<svg width="48px" height="48px" viewBox="0 0 48 48" version="1.1" xmlns="http://www.w3.org/2000/svg" xmlns:xlink="http://www.w3.org/1999/xlink">
    <!-- Generator: sketchtool 39.1 (31720) - http://www.bohemiancoding.com/sketch -->
    <title>0BC2C4F0-869D-446A-A87F-A080A6FCA987</title>
    <desc>Created with sketchtool.</desc>
    <defs></defs>
    <g id="Page-1" stroke="none" stroke-width="1" fill="none" fill-rule="evenodd">
        <g id="Home-Page-Banner-Active-Widget" transform="translate(-730.000000, -684.000000)">
            <g id="Banner">
                <g id="Indiactions" transform="translate(662.000000, 684.000000)">
                    <g id="Map" transform="translate(68.000000, 0.000000)">
                        <circle id="Oval-32" fill="#FFFFFF" cx="24" cy="24" r="24"></circle>
                        <g id="Map-Icon" transform="translate(12.000000, 15.000000)" fill="#24CA69">
                            <path d="M8.48556572,9.30071026 C9.35915141,9.30071026 10.0672629,9.95148893 10.0672629,10.7541147 C10.0672629,11.5567404 9.35915141,12.2077485 8.48556572,12.2077485 C7.61210483,12.2077485 6.90399334,11.5567404 6.90399334,10.7541147 C6.90399334,9.95148893 7.61210483,9.30071026 8.48556572,9.30071026 L8.48556572,9.30071026 Z" id="Shape"></path>
                            <path d="M23.8879784,10.4680443 L24.9604409,2.69746479 L17.2675957,0.0144507042 L8.03989185,4.06519718 L0,0.944647887 L1.08564892,9.23461167 L0.0451331115,17.3979215 L8.5875624,18.8705553 L17.3005408,17.3455091 L24.989975,18.9762978 L23.8879784,10.4680443 L23.8879784,10.4680443 Z M17.2391015,0.837567404 L24.053203,3.19750503 L23.5841098,6.59533199 L16.7923877,5.01642052 L17.2391015,0.837567404 L17.2391015,0.837567404 Z M16.3377288,1.26890946 L15.9782446,4.82653521 L15.9723378,4.82527364 L11.2699251,5.38269618 L11.2417637,5.47804024 C11.2358569,5.49860765 10.6902662,7.35108853 10.1153078,8.19358753 C9.74317804,7.99246278 9.32470882,7.85778068 8.87757903,7.80785312 L8.49638103,4.71020322 L16.3377288,1.26890946 L16.3377288,1.26890946 Z M15.618802,9.204334 L11.531822,9.77070221 C11.3117304,9.19844668 10.9079035,8.70696982 10.3834859,8.35537425 C10.9185108,7.57048692 11.4014143,6.0509839 11.5230033,5.64988129 L15.9473378,5.12506841 L15.618802,9.204334 L15.618802,9.204334 Z M7.66509983,4.74797384 L8.04276206,7.81534608 C6.80049917,7.9725835 5.78161398,8.77872636 5.40815308,9.84979879 L1.92316972,9.35404024 L1.58851913,6.38338833 C2.74363561,6.31312274 3.61010815,5.96764386 4.16539101,5.35119517 C4.66597338,4.796334 4.80994176,4.13989738 4.8374792,3.6505996 L7.66509983,4.74797384 L7.66509983,4.74797384 Z M1.00611481,2.16362978 L4.51963394,3.52719517 C4.50956739,3.97742254 4.39879368,4.63068612 3.91884359,5.16306841 C3.41813644,5.71792958 2.62175541,6.02827565 1.54787854,6.09055131 L1.00611481,2.16362978 L1.00611481,2.16362978 Z M0.96077371,16.7796761 L1.82512479,10.1123964 L5.26214642,10.6018471 C5.25956739,10.6524628 5.25403494,10.7026197 5.25403494,10.7543441 C5.25403494,11.4487425 5.51638935,12.0868672 5.9531614,12.5934829 L4.16813644,13.910829 L3.60569884,17.2352173 L0.96077371,16.7796761 L0.96077371,16.7796761 Z M7.69446755,17.9402435 L3.92071547,17.2896942 L4.46580699,14.0687928 L6.16451747,12.8155956 C6.68564892,13.310666 7.39080699,13.6410825 8.17870216,13.7092837 L7.69446755,17.9402435 L7.69446755,17.9402435 Z M5.89554908,10.7543441 C5.89554908,9.44124145 7.05757072,8.37338028 8.48556572,8.37338028 C9.91430948,8.37338028 11.0763311,9.44127968 11.0763311,10.7543441 C11.0763311,12.0667586 9.91430948,13.1346962 8.48556572,13.1346962 C7.05752912,13.1349256 5.89554908,12.0667586 5.89554908,10.7543441 L5.89554908,10.7543441 Z M8.58648087,18.0938873 L8.51368552,18.0812716 L9.01784526,13.6803441 C10.546797,13.4458068 11.7175125,12.2247223 11.7175125,10.7536559 C11.7175125,10.6741006 11.7112729,10.5963803 11.7044925,10.5182012 L15.6994176,9.96460161 L16.0328619,13.096008 C14.2802829,13.1717022 12.9702579,13.6668491 12.1456323,14.5814869 C11.1841514,15.6489658 11.1387687,16.9798833 11.1885607,17.6378873 L8.58648087,18.0938873 L8.58648087,18.0938873 Z M11.5085691,17.58234 C11.4698419,16.9577867 11.5259983,15.7321529 12.3930948,14.769996 C13.1600666,13.9190101 14.3973378,13.459837 16.0638103,13.3902596 L16.4188436,16.7221026 L11.5085691,17.58234 L11.5085691,17.58234 Z M16.762604,5.31277465 L23.544218,6.88878068 L23.1375624,9.83309256 L16.4414725,9.09025755 L16.762604,5.31277465 L16.762604,5.31277465 Z M22.2153078,12.3765694 L19.1298253,12.0394245 L19.6948835,17.0696459 L17.2228369,16.5813421 L16.5218386,9.85167203 L16.5938852,9.84127364 L23.0669301,10.5964567 L24.024584,17.9882596 L20.0188436,17.1390704 L19.489975,12.3757284 L22.2400166,12.6690241 L22.2153078,12.3765694 L22.2153078,12.3765694 Z" id="Shape" stroke="#24CA69" stroke-width="0.5"></path>
                        </g>
                    </g>
                </g>
            </g>
        </g>
    </g>
</svg>
